<?xml version="1.0" encoding="UTF-8" standalone="no"?>
<!DOCTYPE svg PUBLIC "-//W3C//DTD SVG 1.1//EN"
 "http://www.w3.org/Graphics/SVG/1.1/DTD/svg11.dtd">
<!-- Generated by graphviz version 2.40.1 (20161225.0304)
 -->
<!-- Title: dependencies Pages: 1 -->
<svg width="1846pt" height="692pt"
 viewBox="0.00 0.00 1846.15 692.00" xmlns="http://www.w3.org/2000/svg" xmlns:xlink="http://www.w3.org/1999/xlink">
<g id="graph0" class="graph" transform="scale(1 1) rotate(0) translate(4 688)">
<title>dependencies</title>
<polygon fill="#ffffff" stroke="transparent" points="-4,4 -4,-688 1842.1525,-688 1842.1525,4 -4,4"/>
<!-- N0 -->
<g id="node1" class="node">
<title>N0</title>
<polygon fill="none" stroke="#000000" points="1288.4346,-684 1234.4346,-684 1234.4346,-648 1288.4346,-648 1288.4346,-684"/>
<text text-anchor="middle" x="1261.4346" y="-661.8" font-family="Times,serif" font-size="14.00" fill="#000000">zshrug</text>
</g>
<!-- N16 -->
<g id="node17" class="node">
<title>N16</title>
<polygon fill="none" stroke="#000000" points="1316.8107,-612 1262.0585,-612 1262.0585,-576 1316.8107,-576 1316.8107,-612"/>
<text text-anchor="middle" x="1289.4346" y="-589.8" font-family="Times,serif" font-size="14.00" fill="#000000">base64</text>
</g>
<!-- N0&#45;&gt;N16 -->
<g id="edge1" class="edge">
<title>N0&#45;&gt;N16</title>
<path fill="none" stroke="#000000" d="M1268.5002,-647.8314C1271.5606,-639.9617 1275.2125,-630.5712 1278.6027,-621.8533"/>
<polygon fill="#000000" stroke="#000000" points="1281.9113,-623.0019 1282.2739,-612.4133 1275.3873,-620.4647 1281.9113,-623.0019"/>
</g>
<!-- N18 -->
<g id="node19" class="node">
<title>N18</title>
<polygon fill="none" stroke="#000000" points="1395.7528,-612 1335.1163,-612 1335.1163,-576 1395.7528,-576 1395.7528,-612"/>
<text text-anchor="middle" x="1365.4346" y="-589.8" font-family="Times,serif" font-size="14.00" fill="#000000">bincode</text>
</g>
<!-- N0&#45;&gt;N18 -->
<g id="edge2" class="edge">
<title>N0&#45;&gt;N18</title>
<path fill="none" stroke="#000000" d="M1287.6782,-647.8314C1300.7341,-638.7927 1316.688,-627.7476 1330.7393,-618.0198"/>
<polygon fill="#000000" stroke="#000000" points="1332.9697,-620.7326 1339.1994,-612.1628 1328.9852,-614.9773 1332.9697,-620.7326"/>
</g>
<!-- N19 -->
<g id="node20" class="node">
<title>N19</title>
<polygon fill="none" stroke="#000000" points="1450.4346,-540 1396.4346,-540 1396.4346,-504 1450.4346,-504 1450.4346,-540"/>
<text text-anchor="middle" x="1423.4346" y="-517.8" font-family="Times,serif" font-size="14.00" fill="#000000">serde</text>
</g>
<!-- N0&#45;&gt;N19 -->
<g id="edge3" class="edge">
<title>N0&#45;&gt;N19</title>
<path fill="none" stroke="#000000" d="M1288.4902,-663.4863C1321.0131,-658.9685 1374.893,-646.4466 1404.4346,-612 1418.9954,-595.0215 1423.3107,-569.681 1424.2328,-550.2108"/>
<polygon fill="#000000" stroke="#000000" points="1427.7345,-550.1578 1424.4396,-540.0884 1420.736,-550.0148 1427.7345,-550.1578"/>
</g>
<!-- N22 -->
<g id="node23" class="node">
<title>N22</title>
<polygon fill="none" stroke="#000000" points="442.4346,-468 388.4346,-468 388.4346,-432 442.4346,-432 442.4346,-468"/>
<text text-anchor="middle" x="415.4346" y="-445.8" font-family="Times,serif" font-size="14.00" fill="#000000">clap</text>
</g>
<!-- N0&#45;&gt;N22 -->
<g id="edge4" class="edge">
<title>N0&#45;&gt;N22</title>
<path fill="none" stroke="#000000" d="M1234.2401,-665.3452C1109.2904,-662.1558 593.6962,-646.9582 531.4346,-612 477.7193,-581.8403 442.6024,-515.2456 426.2023,-477.5029"/>
<polygon fill="#000000" stroke="#000000" points="429.3594,-475.9815 422.2541,-468.1224 422.9076,-478.6971 429.3594,-475.9815"/>
</g>
<!-- N25 -->
<g id="node26" class="node">
<title>N25</title>
<polygon fill="none" stroke="#000000" points="904.9277,-468 839.9414,-468 839.9414,-432 904.9277,-432 904.9277,-468"/>
<text text-anchor="middle" x="872.4346" y="-445.8" font-family="Times,serif" font-size="14.00" fill="#000000">cluFlock</text>
</g>
<!-- N0&#45;&gt;N25 -->
<g id="edge5" class="edge">
<title>N0&#45;&gt;N25</title>
<path fill="none" stroke="#000000" d="M1234.4038,-663.2522C1192.8991,-658.1359 1111.9337,-644.5528 1051.4346,-612 985.5505,-576.5498 924.5177,-511.7749 893.6024,-475.8047"/>
<polygon fill="#000000" stroke="#000000" points="896.2555,-473.5217 887.1158,-468.1629 890.9188,-478.0517 896.2555,-473.5217"/>
</g>
<!-- N26 -->
<g id="node27" class="node">
<title>N26</title>
<polygon fill="none" stroke="#000000" points="1114.4346,-612 1060.4346,-612 1060.4346,-576 1114.4346,-576 1114.4346,-612"/>
<text text-anchor="middle" x="1087.4346" y="-589.8" font-family="Times,serif" font-size="14.00" fill="#000000">dirs</text>
</g>
<!-- N0&#45;&gt;N26 -->
<g id="edge6" class="edge">
<title>N0&#45;&gt;N26</title>
<path fill="none" stroke="#000000" d="M1234.2471,-654.75C1204.5822,-642.4749 1156.9352,-622.7589 1124.0072,-609.1335"/>
<polygon fill="#000000" stroke="#000000" points="1125.2961,-605.8791 1114.7177,-605.2896 1122.6196,-612.3472 1125.2961,-605.8791"/>
</g>
<!-- N29 -->
<g id="node30" class="node">
<title>N29</title>
<polygon fill="none" stroke="#000000" points="1261.4346,-468 1207.4346,-468 1207.4346,-432 1261.4346,-432 1261.4346,-468"/>
<text text-anchor="middle" x="1234.4346" y="-445.8" font-family="Times,serif" font-size="14.00" fill="#000000">failure</text>
</g>
<!-- N0&#45;&gt;N29 -->
<g id="edge7" class="edge">
<title>N0&#45;&gt;N29</title>
<path fill="none" stroke="#000000" d="M1258.5559,-647.5251C1256.9678,-637.1041 1255.0053,-623.8377 1253.4346,-612 1247.2102,-565.0895 1241.016,-510.3928 1237.4647,-478.0642"/>
<polygon fill="#000000" stroke="#000000" points="1240.9308,-477.5624 1236.3655,-468.0016 1233.9722,-478.3226 1240.9308,-477.5624"/>
</g>
<!-- N38 -->
<g id="node39" class="node">
<title>N38</title>
<polygon fill="none" stroke="#000000" points="1605.4346,-612 1551.4346,-612 1551.4346,-576 1605.4346,-576 1605.4346,-612"/>
<text text-anchor="middle" x="1578.4346" y="-589.8" font-family="Times,serif" font-size="14.00" fill="#000000">md5</text>
</g>
<!-- N0&#45;&gt;N38 -->
<g id="edge8" class="edge">
<title>N0&#45;&gt;N38</title>
<path fill="none" stroke="#000000" d="M1288.8014,-663.2585C1338.1497,-657.7857 1445.1461,-643.4959 1541.6474,-611.7836"/>
<polygon fill="#000000" stroke="#000000" points="1542.8857,-615.0598 1551.2503,-608.5573 1540.6563,-608.4243 1542.8857,-615.0598"/>
</g>
<!-- N41 -->
<g id="node42" class="node">
<title>N41</title>
<polygon fill="none" stroke="#000000" points="670.988,-396 611.8811,-396 611.8811,-360 670.988,-360 670.988,-396"/>
<text text-anchor="middle" x="641.4346" y="-373.8" font-family="Times,serif" font-size="14.00" fill="#000000">os_pipe</text>
</g>
<!-- N0&#45;&gt;N41 -->
<g id="edge9" class="edge">
<title>N0&#45;&gt;N41</title>
<path fill="none" stroke="#000000" d="M1234.0851,-662.6063C1185.2613,-656.0758 1080.2666,-639.8841 995.4346,-612 851.1142,-564.5622 793.9173,-574.3495 685.4346,-468 667.8781,-450.7888 656.2945,-425.1434 649.4406,-405.6261"/>
<polygon fill="#000000" stroke="#000000" points="652.7396,-404.4542 646.281,-396.0555 646.0925,-406.6487 652.7396,-404.4542"/>
</g>
<!-- N47 -->
<g id="node48" class="node">
<title>N47</title>
<polygon fill="none" stroke="#000000" points="1533.4672,-612 1453.402,-612 1453.402,-576 1533.4672,-576 1533.4672,-612"/>
<text text-anchor="middle" x="1493.4346" y="-589.8" font-family="Times,serif" font-size="14.00" fill="#000000">serde_yaml</text>
</g>
<!-- N0&#45;&gt;N47 -->
<g id="edge10" class="edge">
<title>N0&#45;&gt;N47</title>
<path fill="none" stroke="#000000" d="M1288.6049,-657.786C1323.2097,-647.2964 1384.8349,-628.522 1437.4346,-612 1439.5323,-611.3411 1441.6733,-610.6657 1443.8355,-609.9812"/>
<polygon fill="#000000" stroke="#000000" points="1444.9132,-613.3113 1453.3823,-606.9453 1442.7918,-606.6404 1444.9132,-613.3113"/>
</g>
<!-- N1 -->
<g id="node2" class="node">
<title>N1</title>
<polygon fill="none" stroke="#000000" points="552.5382,-324 498.331,-324 498.331,-288 552.5382,-288 552.5382,-324"/>
<text text-anchor="middle" x="525.4346" y="-301.8" font-family="Times,serif" font-size="14.00" fill="#000000">winapi</text>
</g>
<!-- N49 -->
<g id="node50" class="node">
<title>N49</title>
<polygon fill="none" stroke="#000000" points="552.8491,-252 370.02,-252 370.02,-216 552.8491,-216 552.8491,-252"/>
<text text-anchor="middle" x="461.4346" y="-229.8" font-family="Times,serif" font-size="14.00" fill="#000000">winapi&#45;i686&#45;pc&#45;windows&#45;gnu</text>
</g>
<!-- N1&#45;&gt;N49 -->
<g id="edge11" class="edge">
<title>N1&#45;&gt;N49</title>
<path fill="none" stroke="#000000" d="M509.2847,-287.8314C501.7629,-279.3694 492.678,-269.1489 484.4542,-259.8971"/>
<polygon fill="#000000" stroke="#000000" points="487.0615,-257.5621 477.8019,-252.4133 481.8296,-262.2127 487.0615,-257.5621"/>
</g>
<!-- N50 -->
<g id="node51" class="node">
<title>N50</title>
<polygon fill="none" stroke="#000000" points="351.9595,-252 152.9096,-252 152.9096,-216 351.9595,-216 351.9595,-252"/>
<text text-anchor="middle" x="252.4346" y="-229.8" font-family="Times,serif" font-size="14.00" fill="#000000">winapi&#45;x86_64&#45;pc&#45;windows&#45;gnu</text>
</g>
<!-- N1&#45;&gt;N50 -->
<g id="edge12" class="edge">
<title>N1&#45;&gt;N50</title>
<path fill="none" stroke="#000000" d="M498.0251,-292.4993C494.1827,-290.8578 490.2447,-289.3034 486.4346,-288 446.2496,-274.2534 400.9939,-262.8966 361.0659,-254.2042"/>
<polygon fill="#000000" stroke="#000000" points="361.5476,-250.728 351.0358,-252.0519 360.0788,-257.5722 361.5476,-250.728"/>
</g>
<!-- N2 -->
<g id="node3" class="node">
<title>N2</title>
<polygon fill="none" stroke="#000000" points="1074.6753,-468 1010.1938,-468 1010.1938,-432 1074.6753,-432 1074.6753,-468"/>
<text text-anchor="middle" x="1042.4346" y="-445.8" font-family="Times,serif" font-size="14.00" fill="#000000">argon2rs</text>
</g>
<!-- N3 -->
<g id="node4" class="node">
<title>N3</title>
<polygon fill="none" stroke="#000000" points="1103.9537,-396 1030.9154,-396 1030.9154,-360 1103.9537,-360 1103.9537,-396"/>
<text text-anchor="middle" x="1067.4346" y="-373.8" font-family="Times,serif" font-size="14.00" fill="#000000">blake2&#45;rfc</text>
</g>
<!-- N2&#45;&gt;N3 -->
<g id="edge13" class="edge">
<title>N2&#45;&gt;N3</title>
<path fill="none" stroke="#000000" d="M1048.7431,-431.8314C1051.4463,-424.0463 1054.6662,-414.7729 1057.6656,-406.1347"/>
<polygon fill="#000000" stroke="#000000" points="1061.0673,-407.0081 1061.0411,-396.4133 1054.4545,-404.7119 1061.0673,-407.0081"/>
</g>
<!-- N4 -->
<g id="node5" class="node">
<title>N4</title>
<polygon fill="none" stroke="#000000" points="1012.18,-396 890.6892,-396 890.6892,-360 1012.18,-360 1012.18,-396"/>
<text text-anchor="middle" x="951.4346" y="-373.8" font-family="Times,serif" font-size="14.00" fill="#000000">scoped_threadpool</text>
</g>
<!-- N2&#45;&gt;N4 -->
<g id="edge14" class="edge">
<title>N2&#45;&gt;N4</title>
<path fill="none" stroke="#000000" d="M1019.4714,-431.8314C1008.2631,-422.9632 994.6137,-412.1637 982.4906,-402.5718"/>
<polygon fill="#000000" stroke="#000000" points="984.4043,-399.6229 974.3904,-396.1628 980.0609,-405.1125 984.4043,-399.6229"/>
</g>
<!-- N5 -->
<g id="node6" class="node">
<title>N5</title>
<polygon fill="none" stroke="#000000" points="1290.6145,-324 1226.2546,-324 1226.2546,-288 1290.6145,-288 1290.6145,-324"/>
<text text-anchor="middle" x="1258.4346" y="-301.8" font-family="Times,serif" font-size="14.00" fill="#000000">arrayvec</text>
</g>
<!-- N3&#45;&gt;N5 -->
<g id="edge15" class="edge">
<title>N3&#45;&gt;N5</title>
<path fill="none" stroke="#000000" d="M1104.0684,-365.5942C1132.5734,-355.7671 1173.2784,-341.3556 1216.9356,-324.0859"/>
<polygon fill="#000000" stroke="#000000" points="1218.2985,-327.3105 1226.293,-320.358 1215.7077,-320.8076 1218.2985,-327.3105"/>
</g>
<!-- N21 -->
<g id="node22" class="node">
<title>N21</title>
<polygon fill="none" stroke="#000000" points="1022.6868,-324 908.1823,-324 908.1823,-288 1022.6868,-288 1022.6868,-324"/>
<text text-anchor="middle" x="965.4346" y="-301.8" font-family="Times,serif" font-size="14.00" fill="#000000">constant_time_eq</text>
</g>
<!-- N3&#45;&gt;N21 -->
<g id="edge16" class="edge">
<title>N3&#45;&gt;N21</title>
<path fill="none" stroke="#000000" d="M1041.6957,-359.8314C1028.8908,-350.7927 1013.2437,-339.7476 999.4626,-330.0198"/>
<polygon fill="#000000" stroke="#000000" points="1001.3533,-327.0703 991.1652,-324.1628 997.3165,-332.7891 1001.3533,-327.0703"/>
</g>
<!-- N6 -->
<g id="node7" class="node">
<title>N6</title>
<polygon fill="none" stroke="#000000" points="1286.0977,-252 1230.7714,-252 1230.7714,-216 1286.0977,-216 1286.0977,-252"/>
<text text-anchor="middle" x="1258.4346" y="-229.8" font-family="Times,serif" font-size="14.00" fill="#000000">nodrop</text>
</g>
<!-- N5&#45;&gt;N6 -->
<g id="edge17" class="edge">
<title>N5&#45;&gt;N6</title>
<path fill="none" stroke="#000000" d="M1258.4346,-287.8314C1258.4346,-280.131 1258.4346,-270.9743 1258.4346,-262.4166"/>
<polygon fill="#000000" stroke="#000000" points="1261.9347,-262.4132 1258.4346,-252.4133 1254.9347,-262.4133 1261.9347,-262.4132"/>
</g>
<!-- N7 -->
<g id="node8" class="node">
<title>N7</title>
<polygon fill="none" stroke="#000000" points="555.4346,-396 501.4346,-396 501.4346,-360 555.4346,-360 555.4346,-396"/>
<text text-anchor="middle" x="528.4346" y="-373.8" font-family="Times,serif" font-size="14.00" fill="#000000">atty</text>
</g>
<!-- N7&#45;&gt;N1 -->
<g id="edge18" class="edge">
<title>N7&#45;&gt;N1</title>
<path fill="none" stroke="#000000" d="M527.6775,-359.8314C527.3567,-352.131 526.9752,-342.9743 526.6186,-334.4166"/>
<polygon fill="#000000" stroke="#000000" points="530.1152,-334.2589 526.2018,-324.4133 523.1212,-334.5503 530.1152,-334.2589"/>
</g>
<!-- N8 -->
<g id="node9" class="node">
<title>N8</title>
<polygon fill="none" stroke="#000000" points="946.4346,-252 892.4346,-252 892.4346,-216 946.4346,-216 946.4346,-252"/>
<text text-anchor="middle" x="919.4346" y="-229.8" font-family="Times,serif" font-size="14.00" fill="#000000">libc</text>
</g>
<!-- N7&#45;&gt;N8 -->
<g id="edge19" class="edge">
<title>N7&#45;&gt;N8</title>
<path fill="none" stroke="#000000" d="M555.4784,-370.8625C603.4174,-358.099 699.5794,-331.9548 713.4346,-324 733.6101,-312.4163 731.157,-299.4041 751.4346,-288 801.7452,-259.7052 824.2966,-272.2445 882.5097,-251.8904"/>
<polygon fill="#000000" stroke="#000000" points="883.9962,-255.0727 892.1684,-248.33 881.575,-248.5047 883.9962,-255.0727"/>
</g>
<!-- N9 -->
<g id="node10" class="node">
<title>N9</title>
<polygon fill="none" stroke="#000000" points="476.9812,-324 417.8879,-324 417.8879,-288 476.9812,-288 476.9812,-324"/>
<text text-anchor="middle" x="447.4346" y="-301.8" font-family="Times,serif" font-size="14.00" fill="#000000">termion</text>
</g>
<!-- N7&#45;&gt;N9 -->
<g id="edge20" class="edge">
<title>N7&#45;&gt;N9</title>
<path fill="none" stroke="#000000" d="M507.9949,-359.8314C498.1141,-351.0485 486.1022,-340.3712 475.3895,-330.8489"/>
<polygon fill="#000000" stroke="#000000" points="477.6672,-328.1906 467.8678,-324.1628 473.0166,-333.4224 477.6672,-328.1906"/>
</g>
<!-- N9&#45;&gt;N8 -->
<g id="edge21" class="edge">
<title>N9&#45;&gt;N8</title>
<path fill="none" stroke="#000000" d="M477.3216,-291.8554C481.3283,-290.3565 485.4356,-289.0126 489.4346,-288 656.7323,-245.6373 712.256,-298.1332 882.5596,-251.602"/>
<polygon fill="#000000" stroke="#000000" points="883.6614,-254.928 892.3432,-248.8554 881.7694,-248.1886 883.6614,-254.928"/>
</g>
<!-- N44 -->
<g id="node45" class="node">
<title>N44</title>
<polygon fill="none" stroke="#000000" points="170.9141,-180 77.9551,-180 77.9551,-144 170.9141,-144 170.9141,-180"/>
<text text-anchor="middle" x="124.4346" y="-157.8" font-family="Times,serif" font-size="14.00" fill="#000000">redox_syscall</text>
</g>
<!-- N9&#45;&gt;N44 -->
<g id="edge22" class="edge">
<title>N9&#45;&gt;N44</title>
<path fill="none" stroke="#000000" d="M417.8267,-300.1778C399.3326,-296.5789 375.0153,-291.9156 353.4346,-288 306.8478,-279.5472 177.5488,-284.8328 143.4346,-252 127.1467,-236.324 123.0624,-210.4653 122.6658,-190.4785"/>
<polygon fill="#000000" stroke="#000000" points="126.1666,-190.3966 122.7598,-180.3644 119.1669,-190.3314 126.1666,-190.3966"/>
</g>
<!-- N45 -->
<g id="node46" class="node">
<title>N45</title>
<polygon fill="none" stroke="#000000" points="96.8038,-252 .0653,-252 .0653,-216 96.8038,-216 96.8038,-252"/>
<text text-anchor="middle" x="48.4346" y="-229.8" font-family="Times,serif" font-size="14.00" fill="#000000">redox_termios</text>
</g>
<!-- N9&#45;&gt;N45 -->
<g id="edge23" class="edge">
<title>N9&#45;&gt;N45</title>
<path fill="none" stroke="#000000" d="M417.857,-300.0052C399.3743,-296.3414 375.0583,-291.6704 353.4346,-288 245.7955,-269.7292 217.1039,-275.2734 110.4346,-252 109.3395,-251.7611 108.2354,-251.5133 107.1246,-251.2579"/>
<polygon fill="#000000" stroke="#000000" points="107.5573,-247.7603 97.0114,-248.7778 105.89,-254.5589 107.5573,-247.7603"/>
</g>
<!-- N10 -->
<g id="node11" class="node">
<title>N10</title>
<polygon fill="none" stroke="#000000" points="1524.4141,-324 1466.4551,-324 1466.4551,-288 1524.4141,-288 1524.4141,-324"/>
<text text-anchor="middle" x="1495.4346" y="-301.8" font-family="Times,serif" font-size="14.00" fill="#000000">autocfg</text>
</g>
<!-- N11 -->
<g id="node12" class="node">
<title>N11</title>
<polygon fill="none" stroke="#000000" points="1269.0567,-396 1199.8125,-396 1199.8125,-360 1269.0567,-360 1269.0567,-396"/>
<text text-anchor="middle" x="1234.4346" y="-373.8" font-family="Times,serif" font-size="14.00" fill="#000000">backtrace</text>
</g>
<!-- N11&#45;&gt;N1 -->
<g id="edge24" class="edge">
<title>N11&#45;&gt;N1</title>
<path fill="none" stroke="#000000" d="M1199.5805,-372.081C1175.4549,-368.1645 1142.5699,-363.1825 1113.4346,-360 885.7846,-335.1332 825.7191,-359.1878 599.4346,-324 587.3088,-322.1144 574.2487,-319.2301 562.5256,-316.3191"/>
<polygon fill="#000000" stroke="#000000" points="563.1809,-312.8739 552.6248,-313.7785 561.441,-319.6543 563.1809,-312.8739"/>
</g>
<!-- N11&#45;&gt;N8 -->
<g id="edge25" class="edge">
<title>N11&#45;&gt;N8</title>
<path fill="none" stroke="#000000" d="M1199.6731,-366.3832C1173.3618,-356.8529 1136.8559,-342.0193 1107.4346,-324 1086.1796,-310.9822 1085.9804,-300.5305 1064.4346,-288 1029.9067,-267.9195 986.5712,-252.9482 956.3077,-243.9253"/>
<polygon fill="#000000" stroke="#000000" points="957.1568,-240.5273 946.5772,-241.0946 955.2015,-247.2486 957.1568,-240.5273"/>
</g>
<!-- N11&#45;&gt;N10 -->
<g id="edge26" class="edge">
<title>N11&#45;&gt;N10</title>
<path fill="none" stroke="#000000" d="M1269.2596,-371.1015C1312.6886,-362.1058 1388.9517,-345.0115 1452.4346,-324 1453.8271,-323.5391 1455.238,-323.0532 1456.6577,-322.5482"/>
<polygon fill="#000000" stroke="#000000" points="1457.9347,-325.8073 1466.0532,-318.9999 1455.4615,-319.2588 1457.9347,-325.8073"/>
</g>
<!-- N12 -->
<g id="node13" class="node">
<title>N12</title>
<polygon fill="none" stroke="#000000" points="1208.6144,-324 1116.2547,-324 1116.2547,-288 1208.6144,-288 1208.6144,-324"/>
<text text-anchor="middle" x="1162.4346" y="-301.8" font-family="Times,serif" font-size="14.00" fill="#000000">backtrace&#45;sys</text>
</g>
<!-- N11&#45;&gt;N12 -->
<g id="edge27" class="edge">
<title>N11&#45;&gt;N12</title>
<path fill="none" stroke="#000000" d="M1216.2659,-359.8314C1207.7193,-351.2848 1197.3789,-340.9443 1188.0544,-331.6198"/>
<polygon fill="#000000" stroke="#000000" points="1190.3938,-329.0095 1180.8478,-324.4133 1185.444,-333.9592 1190.3938,-329.0095"/>
</g>
<!-- N13 -->
<g id="node14" class="node">
<title>N13</title>
<polygon fill="none" stroke="#000000" points="1182.4346,-252 1128.4346,-252 1128.4346,-216 1182.4346,-216 1182.4346,-252"/>
<text text-anchor="middle" x="1155.4346" y="-229.8" font-family="Times,serif" font-size="14.00" fill="#000000">cfg&#45;if</text>
</g>
<!-- N11&#45;&gt;N13 -->
<g id="edge28" class="edge">
<title>N11&#45;&gt;N13</title>
<path fill="none" stroke="#000000" d="M1269.5444,-374.0812C1334.6982,-365.4532 1463.8327,-341.1984 1419.4346,-288 1390.7795,-253.6651 1265.048,-261.8927 1221.4346,-252 1211.9929,-249.8584 1201.8723,-247.2556 1192.4623,-244.7025"/>
<polygon fill="#000000" stroke="#000000" points="1193.1673,-241.2661 1182.5962,-241.9757 1191.3025,-248.0132 1193.1673,-241.2661"/>
</g>
<!-- N14 -->
<g id="node15" class="node">
<title>N14</title>
<polygon fill="none" stroke="#000000" points="1410.7319,-324 1308.1373,-324 1308.1373,-288 1410.7319,-288 1410.7319,-324"/>
<text text-anchor="middle" x="1359.4346" y="-301.8" font-family="Times,serif" font-size="14.00" fill="#000000">rustc&#45;demangle</text>
</g>
<!-- N11&#45;&gt;N14 -->
<g id="edge29" class="edge">
<title>N11&#45;&gt;N14</title>
<path fill="none" stroke="#000000" d="M1265.9773,-359.8314C1282.1137,-350.5368 1301.9332,-339.1208 1319.1618,-329.1971"/>
<polygon fill="#000000" stroke="#000000" points="1320.9835,-332.187 1327.9019,-324.1628 1317.4896,-326.1212 1320.9835,-332.187"/>
</g>
<!-- N12&#45;&gt;N8 -->
<g id="edge30" class="edge">
<title>N12&#45;&gt;N8</title>
<path fill="none" stroke="#000000" d="M1116.2531,-292.1226C1111.586,-290.7271 1106.9168,-289.3336 1102.4346,-288 1051.9379,-272.9752 993.5508,-255.7764 956.5685,-244.9042"/>
<polygon fill="#000000" stroke="#000000" points="957.3107,-241.4743 946.7296,-242.0125 955.3368,-248.1903 957.3107,-241.4743"/>
</g>
<!-- N15 -->
<g id="node16" class="node">
<title>N15</title>
<polygon fill="none" stroke="#000000" points="1049.4346,-252 995.4346,-252 995.4346,-216 1049.4346,-216 1049.4346,-252"/>
<text text-anchor="middle" x="1022.4346" y="-229.8" font-family="Times,serif" font-size="14.00" fill="#000000">cc</text>
</g>
<!-- N12&#45;&gt;N15 -->
<g id="edge31" class="edge">
<title>N12&#45;&gt;N15</title>
<path fill="none" stroke="#000000" d="M1127.1067,-287.8314C1106.2204,-277.0898 1079.8245,-263.5148 1058.7653,-252.6844"/>
<polygon fill="#000000" stroke="#000000" points="1060.2956,-249.5357 1049.802,-248.0747 1057.0941,-255.7607 1060.2956,-249.5357"/>
</g>
<!-- N17 -->
<g id="node18" class="node">
<title>N17</title>
<polygon fill="none" stroke="#000000" points="1335.0771,-540 1265.7921,-540 1265.7921,-504 1335.0771,-504 1335.0771,-540"/>
<text text-anchor="middle" x="1300.4346" y="-517.8" font-family="Times,serif" font-size="14.00" fill="#000000">byteorder</text>
</g>
<!-- N16&#45;&gt;N17 -->
<g id="edge32" class="edge">
<title>N16&#45;&gt;N17</title>
<path fill="none" stroke="#000000" d="M1292.2103,-575.8314C1293.3868,-568.131 1294.7857,-558.9743 1296.0931,-550.4166"/>
<polygon fill="#000000" stroke="#000000" points="1299.5709,-550.8272 1297.6214,-540.4133 1292.6512,-549.7699 1299.5709,-550.8272"/>
</g>
<!-- N18&#45;&gt;N10 -->
<g id="edge33" class="edge">
<title>N18&#45;&gt;N10</title>
<path fill="none" stroke="#000000" d="M1368.4106,-575.9934C1371.7908,-557.5199 1378.0808,-528.1487 1387.4346,-504 1412.4022,-439.5407 1454.2943,-369.8243 1477.8949,-332.7555"/>
<polygon fill="#000000" stroke="#000000" points="1481.0217,-334.3635 1483.4795,-324.0577 1475.1313,-330.5814 1481.0217,-334.3635"/>
</g>
<!-- N18&#45;&gt;N17 -->
<g id="edge34" class="edge">
<title>N18&#45;&gt;N17</title>
<path fill="none" stroke="#000000" d="M1349.0323,-575.8314C1341.393,-567.3694 1332.1662,-557.1489 1323.8139,-547.8971"/>
<polygon fill="#000000" stroke="#000000" points="1326.3567,-545.4906 1317.0577,-540.4133 1321.1608,-550.1813 1326.3567,-545.4906"/>
</g>
<!-- N18&#45;&gt;N19 -->
<g id="edge35" class="edge">
<title>N18&#45;&gt;N19</title>
<path fill="none" stroke="#000000" d="M1380.0704,-575.8314C1386.7507,-567.5386 1394.7914,-557.557 1402.1249,-548.4533"/>
<polygon fill="#000000" stroke="#000000" points="1405.054,-550.3965 1408.6017,-540.4133 1399.6027,-546.0052 1405.054,-550.3965"/>
</g>
<!-- N46 -->
<g id="node47" class="node">
<title>N46</title>
<polygon fill="none" stroke="#000000" points="1807.9535,-324 1720.9157,-324 1720.9157,-288 1807.9535,-288 1807.9535,-324"/>
<text text-anchor="middle" x="1764.4346" y="-301.8" font-family="Times,serif" font-size="14.00" fill="#000000">serde_derive</text>
</g>
<!-- N19&#45;&gt;N46 -->
<g id="edge36" class="edge">
<title>N19&#45;&gt;N46</title>
<path fill="none" stroke="#000000" d="M1450.4773,-504.8703C1511.0821,-466.4814 1657.8776,-373.4965 1727.1138,-329.6402"/>
<polygon fill="#000000" stroke="#000000" points="1729.3807,-332.3474 1735.9556,-324.0395 1725.6349,-326.4339 1729.3807,-332.3474"/>
</g>
<!-- N20 -->
<g id="node21" class="node">
<title>N20</title>
<polygon fill="none" stroke="#000000" points="802.1626,-252 744.7066,-252 744.7066,-216 802.1626,-216 802.1626,-252"/>
<text text-anchor="middle" x="773.4346" y="-229.8" font-family="Times,serif" font-size="14.00" fill="#000000">bitflags</text>
</g>
<!-- N22&#45;&gt;N7 -->
<g id="edge37" class="edge">
<title>N22&#45;&gt;N7</title>
<path fill="none" stroke="#000000" d="M442.5009,-432.7542C457.4856,-423.2064 476.3027,-411.2168 492.5057,-400.8927"/>
<polygon fill="#000000" stroke="#000000" points="494.6447,-403.68 501.1975,-395.3546 490.8831,-397.7765 494.6447,-403.68"/>
</g>
<!-- N22&#45;&gt;N20 -->
<g id="edge38" class="edge">
<title>N22&#45;&gt;N20</title>
<path fill="none" stroke="#000000" d="M407.2703,-431.948C393.5173,-398.4863 370.7251,-326.7226 408.4346,-288 457.4461,-237.6717 649.2649,-269.2224 734.8772,-251.2347"/>
<polygon fill="#000000" stroke="#000000" points="735.9074,-254.5855 744.7745,-248.7867 734.2266,-247.7902 735.9074,-254.5855"/>
</g>
<!-- N23 -->
<g id="node24" class="node">
<title>N23</title>
<polygon fill="none" stroke="#000000" points="317.9141,-396 252.9551,-396 252.9551,-360 317.9141,-360 317.9141,-396"/>
<text text-anchor="middle" x="285.4346" y="-373.8" font-family="Times,serif" font-size="14.00" fill="#000000">textwrap</text>
</g>
<!-- N22&#45;&gt;N23 -->
<g id="edge39" class="edge">
<title>N22&#45;&gt;N23</title>
<path fill="none" stroke="#000000" d="M388.1823,-434.9064C370.4915,-425.1084 347.0917,-412.1486 327.0919,-401.0718"/>
<polygon fill="#000000" stroke="#000000" points="328.6185,-397.9163 318.1748,-396.133 325.227,-404.0399 328.6185,-397.9163"/>
</g>
<!-- N24 -->
<g id="node25" class="node">
<title>N24</title>
<polygon fill="none" stroke="#000000" points="344.8038,-324 248.0653,-324 248.0653,-288 344.8038,-288 344.8038,-324"/>
<text text-anchor="middle" x="296.4346" y="-301.8" font-family="Times,serif" font-size="14.00" fill="#000000">unicode&#45;width</text>
</g>
<!-- N22&#45;&gt;N24 -->
<g id="edge40" class="edge">
<title>N22&#45;&gt;N24</title>
<path fill="none" stroke="#000000" d="M399.5695,-431.5987C390.6525,-421.2007 379.3541,-407.9328 369.4346,-396 351.5901,-374.5337 331.6446,-349.8985 317.1175,-331.8353"/>
<polygon fill="#000000" stroke="#000000" points="319.8421,-329.6383 310.8511,-324.0335 314.3845,-334.0218 319.8421,-329.6383"/>
</g>
<!-- N51 -->
<g id="node52" class="node">
<title>N51</title>
<polygon fill="none" stroke="#000000" points="483.1419,-396 411.7272,-396 411.7272,-360 483.1419,-360 483.1419,-396"/>
<text text-anchor="middle" x="447.4346" y="-373.8" font-family="Times,serif" font-size="14.00" fill="#000000">ansi_term</text>
</g>
<!-- N22&#45;&gt;N51 -->
<g id="edge41" class="edge">
<title>N22&#45;&gt;N51</title>
<path fill="none" stroke="#000000" d="M423.5095,-431.8314C427.0448,-423.8771 431.2706,-414.369 435.1802,-405.5723"/>
<polygon fill="#000000" stroke="#000000" points="438.3878,-406.9729 439.2509,-396.4133 431.9911,-404.1299 438.3878,-406.9729"/>
</g>
<!-- N23&#45;&gt;N24 -->
<g id="edge42" class="edge">
<title>N23&#45;&gt;N24</title>
<path fill="none" stroke="#000000" d="M288.2103,-359.8314C289.3868,-352.131 290.7857,-342.9743 292.0931,-334.4166"/>
<polygon fill="#000000" stroke="#000000" points="295.5709,-334.8272 293.6214,-324.4133 288.6512,-333.7699 295.5709,-334.8272"/>
</g>
<!-- N25&#45;&gt;N8 -->
<g id="edge43" class="edge">
<title>N25&#45;&gt;N8</title>
<path fill="none" stroke="#000000" d="M873.4647,-431.9659C874.6878,-413.7207 877.1264,-384.7526 881.4346,-360 887.0905,-327.5037 889.6919,-319.5132 899.4346,-288 902.1088,-279.3501 905.3939,-270.0623 908.523,-261.6704"/>
<polygon fill="#000000" stroke="#000000" points="911.7947,-262.9136 912.0786,-252.3225 905.252,-260.4249 911.7947,-262.9136"/>
</g>
<!-- N26&#45;&gt;N1 -->
<g id="edge44" class="edge">
<title>N26&#45;&gt;N1</title>
<path fill="none" stroke="#000000" d="M1060.0456,-589.4294C992.7629,-577.3756 815.3953,-540.5483 685.4346,-468 623.9224,-433.6619 570.5142,-368.6244 543.7368,-332.2708"/>
<polygon fill="#000000" stroke="#000000" points="546.5237,-330.1519 537.8197,-324.1112 540.8569,-334.2613 546.5237,-330.1519"/>
</g>
<!-- N26&#45;&gt;N8 -->
<g id="edge45" class="edge">
<title>N26&#45;&gt;N8</title>
<path fill="none" stroke="#000000" d="M1095.9227,-575.7776C1113.7179,-534.7327 1150.3546,-432.9382 1113.4346,-360 1101.2302,-335.8893 1084.5494,-342.0462 1064.4346,-324 1048.2785,-309.5055 1048.8564,-300.9457 1031.4346,-288 1008.3902,-270.8763 979.0601,-256.9699 956.1956,-247.5597"/>
<polygon fill="#000000" stroke="#000000" points="957.4138,-244.2774 946.8295,-243.8058 954.8096,-250.7749 957.4138,-244.2774"/>
</g>
<!-- N27 -->
<g id="node28" class="node">
<title>N27</title>
<polygon fill="none" stroke="#000000" points="1084.0837,-540 1000.7854,-540 1000.7854,-504 1084.0837,-504 1084.0837,-540"/>
<text text-anchor="middle" x="1042.4346" y="-517.8" font-family="Times,serif" font-size="14.00" fill="#000000">redox_users</text>
</g>
<!-- N26&#45;&gt;N27 -->
<g id="edge46" class="edge">
<title>N26&#45;&gt;N27</title>
<path fill="none" stroke="#000000" d="M1076.0792,-575.8314C1071.002,-567.7079 1064.9119,-557.9637 1059.3169,-549.0118"/>
<polygon fill="#000000" stroke="#000000" points="1062.2109,-547.0383 1053.9429,-540.4133 1056.2749,-550.7483 1062.2109,-547.0383"/>
</g>
<!-- N27&#45;&gt;N2 -->
<g id="edge47" class="edge">
<title>N27&#45;&gt;N2</title>
<path fill="none" stroke="#000000" d="M1042.4346,-503.8314C1042.4346,-496.131 1042.4346,-486.9743 1042.4346,-478.4166"/>
<polygon fill="#000000" stroke="#000000" points="1045.9347,-478.4132 1042.4346,-468.4133 1038.9347,-478.4133 1045.9347,-478.4132"/>
</g>
<!-- N27&#45;&gt;N29 -->
<g id="edge48" class="edge">
<title>N27&#45;&gt;N29</title>
<path fill="none" stroke="#000000" d="M1084.0957,-506.3771C1117.979,-493.6708 1165.3285,-475.9148 1197.7842,-463.7439"/>
<polygon fill="#000000" stroke="#000000" points="1199.2128,-466.9462 1207.3472,-460.1578 1196.7549,-460.3919 1199.2128,-466.9462"/>
</g>
<!-- N43 -->
<g id="node44" class="node">
<title>N43</title>
<polygon fill="none" stroke="#000000" points="816.4346,-396 762.4346,-396 762.4346,-360 816.4346,-360 816.4346,-396"/>
<text text-anchor="middle" x="789.4346" y="-373.8" font-family="Times,serif" font-size="14.00" fill="#000000">rand</text>
</g>
<!-- N27&#45;&gt;N43 -->
<g id="edge49" class="edge">
<title>N27&#45;&gt;N43</title>
<path fill="none" stroke="#000000" d="M1019.5723,-503.9537C994.47,-484.6483 952.5215,-453.8606 913.4346,-432 885.2116,-416.2154 851.4683,-401.7861 826.312,-391.8219"/>
<polygon fill="#000000" stroke="#000000" points="827.3689,-388.4772 816.7809,-388.0972 824.8209,-394.9971 827.3689,-388.4772"/>
</g>
<!-- N27&#45;&gt;N44 -->
<g id="edge50" class="edge">
<title>N27&#45;&gt;N44</title>
<path fill="none" stroke="#000000" d="M1000.4432,-515.962C956.7121,-508.6106 886.9678,-493.8536 831.4346,-468 756.6335,-433.1762 752.0568,-400.9654 680.4346,-360 646.2377,-340.4406 626.1565,-352.9471 599.4346,-324 564.9196,-286.6109 601.0742,-247.9051 561.4346,-216 532.3076,-192.5562 292.4726,-173.4068 180.9989,-165.6803"/>
<polygon fill="#000000" stroke="#000000" points="181.1606,-162.1832 170.9444,-164.9902 180.6812,-169.1668 181.1606,-162.1832"/>
</g>
<!-- N28 -->
<g id="node29" class="node">
<title>N28</title>
<polygon fill="none" stroke="#000000" points="1522.4346,-540 1468.4346,-540 1468.4346,-504 1522.4346,-504 1522.4346,-540"/>
<text text-anchor="middle" x="1495.4346" y="-517.8" font-family="Times,serif" font-size="14.00" fill="#000000">dtoa</text>
</g>
<!-- N29&#45;&gt;N11 -->
<g id="edge51" class="edge">
<title>N29&#45;&gt;N11</title>
<path fill="none" stroke="#000000" d="M1234.4346,-431.8314C1234.4346,-424.131 1234.4346,-414.9743 1234.4346,-406.4166"/>
<polygon fill="#000000" stroke="#000000" points="1237.9347,-406.4132 1234.4346,-396.4133 1230.9347,-406.4133 1237.9347,-406.4132"/>
</g>
<!-- N30 -->
<g id="node31" class="node">
<title>N30</title>
<polygon fill="none" stroke="#000000" points="1599.4466,-396 1505.4226,-396 1505.4226,-360 1599.4466,-360 1599.4466,-396"/>
<text text-anchor="middle" x="1552.4346" y="-373.8" font-family="Times,serif" font-size="14.00" fill="#000000">failure_derive</text>
</g>
<!-- N29&#45;&gt;N30 -->
<g id="edge52" class="edge">
<title>N29&#45;&gt;N30</title>
<path fill="none" stroke="#000000" d="M1261.5471,-443.8613C1313.1553,-432.1764 1426.5026,-406.5129 1495.4803,-390.8953"/>
<polygon fill="#000000" stroke="#000000" points="1496.3425,-394.2888 1505.3227,-388.6668 1494.7967,-387.4616 1496.3425,-394.2888"/>
</g>
<!-- N31 -->
<g id="node32" class="node">
<title>N31</title>
<polygon fill="none" stroke="#000000" points="1686.9535,-108 1599.9157,-108 1599.9157,-72 1686.9535,-72 1686.9535,-108"/>
<text text-anchor="middle" x="1643.4346" y="-85.8" font-family="Times,serif" font-size="14.00" fill="#000000">proc&#45;macro2</text>
</g>
<!-- N30&#45;&gt;N31 -->
<g id="edge53" class="edge">
<title>N30&#45;&gt;N31</title>
<path fill="none" stroke="#000000" d="M1599.569,-375.3469C1668.2058,-370.3876 1790.4434,-357.046 1817.4346,-324 1864.6856,-266.1494 1826.9818,-241.7144 1730.4346,-144 1718.6389,-132.0617 1703.7116,-121.5848 1689.5665,-113.115"/>
<polygon fill="#000000" stroke="#000000" points="1691.305,-110.0773 1680.8953,-108.1055 1687.8034,-116.1385 1691.305,-110.0773"/>
</g>
<!-- N32 -->
<g id="node33" class="node">
<title>N32</title>
<polygon fill="none" stroke="#000000" points="1698.4346,-180 1644.4346,-180 1644.4346,-144 1698.4346,-144 1698.4346,-180"/>
<text text-anchor="middle" x="1671.4346" y="-157.8" font-family="Times,serif" font-size="14.00" fill="#000000">quote</text>
</g>
<!-- N30&#45;&gt;N32 -->
<g id="edge54" class="edge">
<title>N30&#45;&gt;N32</title>
<path fill="none" stroke="#000000" d="M1599.7022,-362.8765C1629.8081,-352.1797 1664.7329,-337.4123 1673.4346,-324 1699.725,-283.4773 1689.8422,-224.4192 1680.4876,-189.9303"/>
<polygon fill="#000000" stroke="#000000" points="1683.776,-188.7019 1677.642,-180.0634 1677.0501,-190.6417 1683.776,-188.7019"/>
</g>
<!-- N33 -->
<g id="node34" class="node">
<title>N33</title>
<polygon fill="none" stroke="#000000" points="1588.4346,-252 1534.4346,-252 1534.4346,-216 1588.4346,-216 1588.4346,-252"/>
<text text-anchor="middle" x="1561.4346" y="-229.8" font-family="Times,serif" font-size="14.00" fill="#000000">syn</text>
</g>
<!-- N30&#45;&gt;N33 -->
<g id="edge55" class="edge">
<title>N30&#45;&gt;N33</title>
<path fill="none" stroke="#000000" d="M1553.5744,-359.7623C1555.1095,-335.201 1557.8566,-291.2474 1559.6624,-262.3541"/>
<polygon fill="#000000" stroke="#000000" points="1563.1733,-262.2885 1560.304,-252.0896 1556.1869,-261.8518 1563.1733,-262.2885"/>
</g>
<!-- N34 -->
<g id="node35" class="node">
<title>N34</title>
<polygon fill="none" stroke="#000000" points="1664.8634,-324 1580.0057,-324 1580.0057,-288 1664.8634,-288 1664.8634,-324"/>
<text text-anchor="middle" x="1622.4346" y="-301.8" font-family="Times,serif" font-size="14.00" fill="#000000">synstructure</text>
</g>
<!-- N30&#45;&gt;N34 -->
<g id="edge56" class="edge">
<title>N30&#45;&gt;N34</title>
<path fill="none" stroke="#000000" d="M1570.0985,-359.8314C1578.4077,-351.2848 1588.4609,-340.9443 1597.5264,-331.6198"/>
<polygon fill="#000000" stroke="#000000" points="1600.0715,-334.023 1604.5328,-324.4133 1595.0525,-329.1435 1600.0715,-334.023"/>
</g>
<!-- N42 -->
<g id="node43" class="node">
<title>N42</title>
<polygon fill="none" stroke="#000000" points="1581.8038,-36 1499.0653,-36 1499.0653,0 1581.8038,0 1581.8038,-36"/>
<text text-anchor="middle" x="1540.4346" y="-13.8" font-family="Times,serif" font-size="14.00" fill="#000000">unicode&#45;xid</text>
</g>
<!-- N31&#45;&gt;N42 -->
<g id="edge57" class="edge">
<title>N31&#45;&gt;N42</title>
<path fill="none" stroke="#000000" d="M1617.4433,-71.8314C1604.513,-62.7927 1588.7124,-51.7476 1574.7963,-42.0198"/>
<polygon fill="#000000" stroke="#000000" points="1576.6188,-39.0235 1566.4175,-36.1628 1572.6083,-44.7608 1576.6188,-39.0235"/>
</g>
<!-- N32&#45;&gt;N31 -->
<g id="edge58" class="edge">
<title>N32&#45;&gt;N31</title>
<path fill="none" stroke="#000000" d="M1664.369,-143.8314C1661.3086,-135.9617 1657.6567,-126.5712 1654.2664,-117.8533"/>
<polygon fill="#000000" stroke="#000000" points="1657.4818,-116.4647 1650.5953,-108.4133 1650.9578,-119.0019 1657.4818,-116.4647"/>
</g>
<!-- N33&#45;&gt;N31 -->
<g id="edge59" class="edge">
<title>N33&#45;&gt;N31</title>
<path fill="none" stroke="#000000" d="M1568.3262,-215.8214C1575.6973,-197.211 1588.2592,-167.7324 1602.4346,-144 1608.0481,-134.6018 1614.994,-124.9054 1621.5633,-116.3678"/>
<polygon fill="#000000" stroke="#000000" points="1624.5037,-118.2912 1627.9438,-108.2704 1619.0055,-113.9588 1624.5037,-118.2912"/>
</g>
<!-- N33&#45;&gt;N32 -->
<g id="edge60" class="edge">
<title>N33&#45;&gt;N32</title>
<path fill="none" stroke="#000000" d="M1588.6256,-216.2022C1602.7724,-206.9425 1620.2502,-195.5025 1635.4975,-185.5224"/>
<polygon fill="#000000" stroke="#000000" points="1637.7249,-188.2476 1644.1751,-179.8425 1633.8913,-182.3907 1637.7249,-188.2476"/>
</g>
<!-- N33&#45;&gt;N42 -->
<g id="edge61" class="edge">
<title>N33&#45;&gt;N42</title>
<path fill="none" stroke="#000000" d="M1559.6802,-215.9555C1556.0207,-178.3144 1547.5499,-91.1867 1543.1689,-46.1246"/>
<polygon fill="#000000" stroke="#000000" points="1546.65,-45.7594 1542.1987,-36.1451 1539.6828,-46.4369 1546.65,-45.7594"/>
</g>
<!-- N34&#45;&gt;N31 -->
<g id="edge62" class="edge">
<title>N34&#45;&gt;N31</title>
<path fill="none" stroke="#000000" d="M1623.4849,-287.9825C1625.3193,-258.0341 1629.4868,-196.1425 1635.4346,-144 1636.3861,-135.6578 1637.6372,-126.6223 1638.8665,-118.3724"/>
<polygon fill="#000000" stroke="#000000" points="1642.3312,-118.8692 1640.3878,-108.4541 1635.4121,-117.8079 1642.3312,-118.8692"/>
</g>
<!-- N34&#45;&gt;N32 -->
<g id="edge63" class="edge">
<title>N34&#45;&gt;N32</title>
<path fill="none" stroke="#000000" d="M1628.6405,-287.7623C1637.0717,-262.9846 1652.2186,-218.4714 1662.045,-189.5939"/>
<polygon fill="#000000" stroke="#000000" points="1665.371,-190.6841 1665.2791,-180.0896 1658.7442,-188.429 1665.371,-190.6841"/>
</g>
<!-- N34&#45;&gt;N33 -->
<g id="edge64" class="edge">
<title>N34&#45;&gt;N33</title>
<path fill="none" stroke="#000000" d="M1607.0417,-287.8314C1599.9442,-279.454 1591.3865,-269.3531 1583.6106,-260.1749"/>
<polygon fill="#000000" stroke="#000000" points="1586.1694,-257.7807 1577.0347,-252.4133 1580.8285,-262.3056 1586.1694,-257.7807"/>
</g>
<!-- N34&#45;&gt;N42 -->
<g id="edge65" class="edge">
<title>N34&#45;&gt;N42</title>
<path fill="none" stroke="#000000" d="M1580.0706,-293.6632C1559.7539,-285.3773 1537.3016,-272.1884 1525.4346,-252 1486.9008,-186.4458 1512.5866,-91.9729 1529.2903,-45.6848"/>
<polygon fill="#000000" stroke="#000000" points="1532.5737,-46.8969 1532.7932,-36.3043 1526.016,-44.448 1532.5737,-46.8969"/>
</g>
<!-- N35 -->
<g id="node36" class="node">
<title>N35</title>
<polygon fill="none" stroke="#000000" points="704.5039,-324 608.3652,-324 608.3652,-288 704.5039,-288 704.5039,-324"/>
<text text-anchor="middle" x="656.4346" y="-301.8" font-family="Times,serif" font-size="14.00" fill="#000000">fuchsia&#45;zircon</text>
</g>
<!-- N35&#45;&gt;N20 -->
<g id="edge66" class="edge">
<title>N35&#45;&gt;N20</title>
<path fill="none" stroke="#000000" d="M685.9586,-287.8314C701.1521,-278.4815 719.8342,-266.9848 736.027,-257.02"/>
<polygon fill="#000000" stroke="#000000" points="738.0466,-259.8869 744.7289,-251.665 734.3779,-253.9252 738.0466,-259.8869"/>
</g>
<!-- N36 -->
<g id="node37" class="node">
<title>N36</title>
<polygon fill="none" stroke="#000000" points="726.5631,-252 608.3061,-252 608.3061,-216 726.5631,-216 726.5631,-252"/>
<text text-anchor="middle" x="667.4346" y="-229.8" font-family="Times,serif" font-size="14.00" fill="#000000">fuchsia&#45;zircon&#45;sys</text>
</g>
<!-- N35&#45;&gt;N36 -->
<g id="edge67" class="edge">
<title>N35&#45;&gt;N36</title>
<path fill="none" stroke="#000000" d="M659.2103,-287.8314C660.3868,-280.131 661.7857,-270.9743 663.0931,-262.4166"/>
<polygon fill="#000000" stroke="#000000" points="666.5709,-262.8272 664.6214,-252.4133 659.6512,-261.7699 666.5709,-262.8272"/>
</g>
<!-- N37 -->
<g id="node38" class="node">
<title>N37</title>
<polygon fill="none" stroke="#000000" points="1765.5176,-468 1655.3515,-468 1655.3515,-432 1765.5176,-432 1765.5176,-468"/>
<text text-anchor="middle" x="1710.4346" y="-445.8" font-family="Times,serif" font-size="14.00" fill="#000000">linked&#45;hash&#45;map</text>
</g>
<!-- N39 -->
<g id="node40" class="node">
<title>N39</title>
<polygon fill="none" stroke="#000000" points="814.4346,-324 760.4346,-324 760.4346,-288 814.4346,-288 814.4346,-324"/>
<text text-anchor="middle" x="787.4346" y="-301.8" font-family="Times,serif" font-size="14.00" fill="#000000">nix</text>
</g>
<!-- N39&#45;&gt;N8 -->
<g id="edge68" class="edge">
<title>N39&#45;&gt;N8</title>
<path fill="none" stroke="#000000" d="M814.4653,-291.256C834.2647,-280.4563 861.3538,-265.6804 883.0535,-253.8442"/>
<polygon fill="#000000" stroke="#000000" points="884.8834,-256.8329 891.9864,-248.9717 881.5314,-250.6877 884.8834,-256.8329"/>
</g>
<!-- N39&#45;&gt;N13 -->
<g id="edge69" class="edge">
<title>N39&#45;&gt;N13</title>
<path fill="none" stroke="#000000" d="M814.4945,-300.7057C879.4918,-287.9888 1044.495,-255.7056 1118.5143,-241.2235"/>
<polygon fill="#000000" stroke="#000000" points="1119.1931,-244.6572 1128.335,-239.3021 1117.849,-237.7874 1119.1931,-244.6572"/>
</g>
<!-- N39&#45;&gt;N15 -->
<g id="edge70" class="edge">
<title>N39&#45;&gt;N15</title>
<path fill="none" stroke="#000000" d="M814.852,-297.5998C857.127,-284.6474 938.2828,-259.7827 985.6282,-245.2769"/>
<polygon fill="#000000" stroke="#000000" points="986.6558,-248.6227 995.1918,-242.3467 984.6052,-241.9298 986.6558,-248.6227"/>
</g>
<!-- N39&#45;&gt;N20 -->
<g id="edge71" class="edge">
<title>N39&#45;&gt;N20</title>
<path fill="none" stroke="#000000" d="M783.9018,-287.8314C782.4045,-280.131 780.624,-270.9743 778.96,-262.4166"/>
<polygon fill="#000000" stroke="#000000" points="782.3594,-261.5614 777.0149,-252.4133 775.488,-262.8975 782.3594,-261.5614"/>
</g>
<!-- N40 -->
<g id="node41" class="node">
<title>N40</title>
<polygon fill="none" stroke="#000000" points="874.4346,-252 820.4346,-252 820.4346,-216 874.4346,-216 874.4346,-252"/>
<text text-anchor="middle" x="847.4346" y="-229.8" font-family="Times,serif" font-size="14.00" fill="#000000">void</text>
</g>
<!-- N39&#45;&gt;N40 -->
<g id="edge72" class="edge">
<title>N39&#45;&gt;N40</title>
<path fill="none" stroke="#000000" d="M802.5751,-287.8314C809.5562,-279.454 817.9736,-269.3531 825.6221,-260.1749"/>
<polygon fill="#000000" stroke="#000000" points="828.3771,-262.3362 832.0902,-252.4133 822.9995,-257.8548 828.3771,-262.3362"/>
</g>
<!-- N41&#45;&gt;N1 -->
<g id="edge73" class="edge">
<title>N41&#45;&gt;N1</title>
<path fill="none" stroke="#000000" d="M612.1629,-359.8314C596.7595,-350.2706 577.7394,-338.4651 561.4399,-328.3481"/>
<polygon fill="#000000" stroke="#000000" points="563.0469,-325.2262 552.7047,-322.9263 559.3553,-331.1737 563.0469,-325.2262"/>
</g>
<!-- N41&#45;&gt;N39 -->
<g id="edge74" class="edge">
<title>N41&#45;&gt;N39</title>
<path fill="none" stroke="#000000" d="M671.3322,-363.256C694.4125,-351.8739 726.4489,-336.0751 751.0237,-323.956"/>
<polygon fill="#000000" stroke="#000000" points="752.622,-327.0703 760.0427,-319.5083 749.5259,-320.7922 752.622,-327.0703"/>
</g>
<!-- N43&#45;&gt;N1 -->
<g id="edge75" class="edge">
<title>N43&#45;&gt;N1</title>
<path fill="none" stroke="#000000" d="M762.1763,-370.5659C714.5268,-357.5706 616.0563,-330.715 562.346,-316.0667"/>
<polygon fill="#000000" stroke="#000000" points="563.1132,-312.6482 552.5446,-313.3936 561.2713,-319.4016 563.1132,-312.6482"/>
</g>
<!-- N43&#45;&gt;N8 -->
<g id="edge76" class="edge">
<title>N43&#45;&gt;N8</title>
<path fill="none" stroke="#000000" d="M804.4194,-359.7559C819.6836,-341.3473 844.2041,-312.2547 866.4346,-288 875.1716,-278.4674 885.0259,-268.2815 893.8464,-259.3542"/>
<polygon fill="#000000" stroke="#000000" points="896.3972,-261.7528 900.9652,-252.1933 891.4329,-256.8176 896.3972,-261.7528"/>
</g>
<!-- N43&#45;&gt;N35 -->
<g id="edge77" class="edge">
<title>N43&#45;&gt;N35</title>
<path fill="none" stroke="#000000" d="M762.1991,-363.256C743.9276,-353.3646 719.4946,-340.1378 698.7157,-328.889"/>
<polygon fill="#000000" stroke="#000000" points="700.2231,-325.7252 689.7628,-324.0423 696.8906,-331.881 700.2231,-325.7252"/>
</g>
<!-- N45&#45;&gt;N44 -->
<g id="edge78" class="edge">
<title>N45&#45;&gt;N44</title>
<path fill="none" stroke="#000000" d="M67.6126,-215.8314C76.7934,-207.1337 87.9352,-196.5783 97.9121,-187.1265"/>
<polygon fill="#000000" stroke="#000000" points="100.4103,-189.5811 105.2627,-180.1628 95.596,-184.4995 100.4103,-189.5811"/>
</g>
<!-- N46&#45;&gt;N31 -->
<g id="edge79" class="edge">
<title>N46&#45;&gt;N31</title>
<path fill="none" stroke="#000000" d="M1761.2456,-287.5463C1755.0903,-255.8747 1739.2751,-190.1309 1707.4346,-144 1699.8106,-132.9543 1689.3622,-122.8526 1679.1179,-114.4505"/>
<polygon fill="#000000" stroke="#000000" points="1681.0336,-111.505 1671.0039,-108.091 1676.7154,-117.0145 1681.0336,-111.505"/>
</g>
<!-- N46&#45;&gt;N32 -->
<g id="edge80" class="edge">
<title>N46&#45;&gt;N32</title>
<path fill="none" stroke="#000000" d="M1752.6736,-287.7195C1740.966,-269.5292 1722.4774,-240.8228 1706.4346,-216 1700.7637,-207.2255 1694.5654,-197.6558 1688.9819,-189.0427"/>
<polygon fill="#000000" stroke="#000000" points="1691.8111,-186.9727 1683.4336,-180.4866 1685.9379,-190.7813 1691.8111,-186.9727"/>
</g>
<!-- N46&#45;&gt;N33 -->
<g id="edge81" class="edge">
<title>N46&#45;&gt;N33</title>
<path fill="none" stroke="#000000" d="M1720.886,-290.5542C1684.4105,-277.6171 1632.9191,-259.3541 1598.4165,-247.1167"/>
<polygon fill="#000000" stroke="#000000" points="1599.3212,-243.724 1588.7264,-243.6799 1596.9812,-250.3214 1599.3212,-243.724"/>
</g>
<!-- N47&#45;&gt;N19 -->
<g id="edge82" class="edge">
<title>N47&#45;&gt;N19</title>
<path fill="none" stroke="#000000" d="M1475.7706,-575.8314C1467.4614,-567.2848 1457.4082,-556.9443 1448.3427,-547.6198"/>
<polygon fill="#000000" stroke="#000000" points="1450.8167,-545.1435 1441.3364,-540.4133 1445.7977,-550.023 1450.8167,-545.1435"/>
</g>
<!-- N47&#45;&gt;N28 -->
<g id="edge83" class="edge">
<title>N47&#45;&gt;N28</title>
<path fill="none" stroke="#000000" d="M1493.9393,-575.8314C1494.1532,-568.131 1494.4075,-558.9743 1494.6452,-550.4166"/>
<polygon fill="#000000" stroke="#000000" points="1498.144,-550.5066 1494.9231,-540.4133 1491.1467,-550.3122 1498.144,-550.5066"/>
</g>
<!-- N47&#45;&gt;N37 -->
<g id="edge84" class="edge">
<title>N47&#45;&gt;N37</title>
<path fill="none" stroke="#000000" d="M1533.4805,-579.2704C1575.3061,-563.8436 1635.1866,-541.6186 1637.4346,-540 1660.9374,-523.0772 1681.0908,-496.7283 1694.23,-476.9053"/>
<polygon fill="#000000" stroke="#000000" points="1697.2907,-478.6169 1699.7602,-468.3139 1691.4046,-474.8281 1697.2907,-478.6169"/>
</g>
<!-- N48 -->
<g id="node49" class="node">
<title>N48</title>
<polygon fill="none" stroke="#000000" points="1628.0907,-540 1558.7784,-540 1558.7784,-504 1628.0907,-504 1628.0907,-540"/>
<text text-anchor="middle" x="1593.4346" y="-517.8" font-family="Times,serif" font-size="14.00" fill="#000000">yaml&#45;rust</text>
</g>
<!-- N47&#45;&gt;N48 -->
<g id="edge85" class="edge">
<title>N47&#45;&gt;N48</title>
<path fill="none" stroke="#000000" d="M1518.6688,-575.8314C1531.2225,-566.7927 1546.5629,-555.7476 1560.0737,-546.0198"/>
<polygon fill="#000000" stroke="#000000" points="1562.1381,-548.8463 1568.2084,-540.1628 1558.048,-543.1655 1562.1381,-548.8463"/>
</g>
<!-- N48&#45;&gt;N37 -->
<g id="edge86" class="edge">
<title>N48&#45;&gt;N37</title>
<path fill="none" stroke="#000000" d="M1622.9586,-503.8314C1637.9236,-494.6221 1656.2732,-483.3301 1672.2948,-473.4706"/>
<polygon fill="#000000" stroke="#000000" points="1674.2377,-476.3847 1680.92,-468.1628 1670.569,-470.423 1674.2377,-476.3847"/>
</g>
<!-- N51&#45;&gt;N1 -->
<g id="edge87" class="edge">
<title>N51&#45;&gt;N1</title>
<path fill="none" stroke="#000000" d="M467.1173,-359.8314C476.5397,-351.1337 487.9747,-340.5783 498.2142,-331.1265"/>
<polygon fill="#000000" stroke="#000000" points="500.7841,-333.5175 505.7582,-324.1628 496.0361,-328.3738 500.7841,-333.5175"/>
</g>
</g>
</svg>
